#tb 0: 1/25
#media_type 0: video
#codec_id 0: rawvideo
#dimensions 0: 720x576
#sar 0: 0/1
0,          0,          0,        1,   622080, 0x58f9ba90
0,          1,          1,        1,   622080, 0x315b38df
0,          2,          2,        1,   622080, 0xcd5439ee
0,          3,          3,        1,   622080, 0x09dee95c
0,          4,          4,        1,   622080, 0x6dbd57a4
0,          5,          5,        1,   622080, 0x5df5c1e7
0,          6,          6,        1,   622080, 0xf980916c
0,          7,          7,        1,   622080, 0x7f6e3bfc
0,          8,          8,        1,   622080, 0x4c02e173
0,          9,          9,        1,   622080, 0x97876413
